<svg xmlns="http://www.w3.org/2000/svg" width="20" height="20" fill="none" viewBox="0 0 20 20">
  <g clip-path="url(#a)">
    <path fill="#fff" d="M14.827 6.01A6.667 6.667 0 0 0 1.667 7.5c0 1.065.256 2.115.75 3.06a4.575 4.575 0 0 0 2.166 8.607h8.75A6.667 6.667 0 0 0 14.827 6.01ZM13.333 17.5h-8.75a2.91 2.91 0 0 1-.726-5.728.834.834 0 0 0 .461-1.304A4.946 4.946 0 0 1 3.333 7.5a5 5 0 0 1 9.95-.667.834.834 0 0 0 .715.717 5 5 0 0 1-.665 9.95Z"/>
  </g>
  <defs>
    <clipPath id="a">
      <path fill="#fff" d="M0 0h20v20H0z"/>
    </clipPath>
  </defs>
</svg>
