<svg xmlns="http://www.w3.org/2000/svg" width="32" height="32" fill="none" viewBox="0 0 32 32">
  <g clip-path="url(#a)">
    <path fill="#fff" d="M9 18a1 1 0 1 0 0-2 1 1 0 0 0 0 2Zm-4-4a1 1 0 1 0 0-2 1 1 0 0 0 0 2Zm4-4a1 1 0 1 0 0-2 1 1 0 0 0 0 2ZM5 6a1 1 0 1 0 0-2 1 1 0 0 0 0 2Zm22 12a1 1 0 1 0 0-2 1 1 0 0 0 0 2Zm-4-4a1 1 0 1 0 0-2 1 1 0 0 0 0 2Zm4-4a1 1 0 1 0 0-2 1 1 0 0 0 0 2Zm-4-4a1 1 0 1 0 0-2 1 1 0 0 0 0 2Zm-5 22a1 1 0 1 0 0-2 1 1 0 0 0 0 2Zm-4-4a1 1 0 1 0 0-2 1 1 0 0 0 0 2Zm4-4a1 1 0 1 0 0-2 1 1 0 0 0 0 2Zm-4-4a1 1 0 1 0 0-2 1 1 0 0 0 0 2Zm5-9a2 2 0 0 1-2-2 1 1 0 1 0-2 0 2 2 0 0 1-2 2 1 1 0 0 0 0 2 2 2 0 0 1 2 2 1 1 0 0 0 2 0 2 2 0 0 1 2-2 1 1 0 1 0 0-2Zm-8 16a2 2 0 0 1-2-2 1 1 0 1 0-2 0 2 2 0 0 1-2 2 1 1 0 1 0 0 2 2 2 0 0 1 2 2 1 1 0 1 0 2 0 2 2 0 0 1 2-2 1 1 0 1 0 0-2Zm16 0a2 2 0 0 1-2-2 1 1 0 1 0-2 0 2 2 0 0 1-2 2 1 1 0 1 0 0 2 2 2 0 0 1 2 2 1 1 0 1 0 2 0 2 2 0 0 1 2-2 1 1 0 1 0 0-2Z"/>
  </g>
  <defs>
    <clipPath id="a">
      <path fill="#fff" d="M0 0h24v24H0z" transform="translate(4 4)"/>
    </clipPath>
  </defs>
</svg>
