<svg xmlns="http://www.w3.org/2000/svg" width="32" height="32" fill="none" viewBox="0 0 32 32">
  <g clip-path="url(#a)">
    <path fill="#fff" d="M24.9 8.291A5.01 5.01 0 0 0 20.2 5h-8.4a5.011 5.011 0 0 0-4.7 3.291l-2.7 7.427A6.664 6.664 0 0 0 4 18v1a4.979 4.979 0 0 0 2 3.978V25a3 3 0 0 0 6 0v-1h8v1a3 3 0 0 0 6 0v-2.022A4.979 4.979 0 0 0 28 19v-1a6.655 6.655 0 0 0-.4-2.281l-2.7-7.428Zm-15.918.684A3.009 3.009 0 0 1 11.8 7h8.4a3.01 3.01 0 0 1 2.82 1.975L25.208 15H6.791l2.191-6.025ZM10 25a1 1 0 1 1-2 0v-1.1c.33.067.664.1 1 .1h1v1Zm14 0a1 1 0 1 1-2 0v-1h1c.336 0 .67-.033 1-.1V25Zm2-6a3 3 0 0 1-3 3H9a3 3 0 0 1-3-3v-1c.004-.337.045-.672.121-1H8v1a1 1 0 1 0 2 0v-1h12v1a1 1 0 0 0 2 0v-1h1.879c.076.328.117.663.121 1v1Z"/>
  </g>
  <defs>
    <clipPath id="a">
      <path fill="#fff" d="M0 0h24v24H0z" transform="translate(4 4)"/>
    </clipPath>
  </defs>
</svg>
