<svg xmlns="http://www.w3.org/2000/svg" width="32" height="32" fill="none" viewBox="0 0 32 32">
  <g clip-path="url(#a)">
    <path fill="#fff" d="M9.972 26.284a1 1 0 0 1-.515-1.857C13 22.3 13 17.73 13 15a3 3 0 0 1 6 0 1 1 0 0 1-2 0 1 1 0 0 0-2 0c0 2.947 0 8.434-4.514 11.143a1 1 0 0 1-.514.142Zm4.963 1.421c2.282-2.3 3.615-5.534 3.961-9.62a1 1 0 0 0-.911-1.086.982.982 0 0 0-1.081.911c-.311 3.657-1.419 6.4-3.388 8.381a1 1 0 1 0 1.419 1.41v.004Zm5.2-.186a17.793 17.793 0 0 0 1.508-3.18 1 1 0 0 0-1.881-.679 15.83 15.83 0 0 1-1.338 2.821 1 1 0 1 0 1.711 1.038ZM22.5 21.19c.37-2.042.538-4.116.5-6.19a7 7 0 0 0-12.213-4.668.999.999 0 1 0 1.489 1.334A5 5 0 0 1 21 15a29.688 29.688 0 0 1-.462 5.81 1 1 0 0 0 1.962.381ZM11 15a5 5 0 0 1 .069-.834 1 1 0 1 0-1.969-.334c-.066.386-.1.776-.1 1.167 0 4.645-1.346 7-4 7a1 1 0 1 0 0 2c3.869 0 6-3.2 6-9Zm13.7 12.413A29.76 29.76 0 0 0 27 15a10.865 10.865 0 0 0-1.1-4.794 1.001 1.001 0 0 0-1.8.875A8.9 8.9 0 0 1 25 15a27.91 27.91 0 0 1-2.119 11.585 1 1 0 0 0 1.819.828ZM7 18v-3a9.01 9.01 0 0 1 9-9 8.91 8.91 0 0 1 5.4 1.8 1 1 0 0 0 1.2-1.6A10.9 10.9 0 0 0 16 4 11.013 11.013 0 0 0 5 15v3a1 1 0 0 0 2 0Z"/>
  </g>
  <defs>
    <clipPath id="a">
      <path fill="#fff" d="M0 0h24v24H0z" transform="translate(4 4)"/>
    </clipPath>
  </defs>
</svg>
