<svg xmlns="http://www.w3.org/2000/svg" width="20" height="20" fill="none" viewBox="0 0 20 20">
  <g clip-path="url(#a)">
    <path fill="#fff" d="M15.833 16.667H4.167A4.172 4.172 0 0 1 0 12.5v-5a4.172 4.172 0 0 1 4.167-4.167h11.666A4.172 4.172 0 0 1 20 7.5v5a4.172 4.172 0 0 1-4.167 4.167ZM4.167 5a2.5 2.5 0 0 0-2.5 2.5v5a2.5 2.5 0 0 0 2.5 2.5h11.666a2.5 2.5 0 0 0 2.5-2.5v-5a2.5 2.5 0 0 0-2.5-2.5H4.167ZM10 13.334a3.333 3.333 0 1 1 0-6.667 3.333 3.333 0 0 1 0 6.667Zm0-5a1.667 1.667 0 1 0 0 3.333 1.667 1.667 0 0 0 0-3.333ZM4.167 6.667a.833.833 0 1 0 0 1.666.833.833 0 0 0 0-1.666ZM15 7.5a.834.834 0 1 0 1.668 0A.834.834 0 0 0 15 7.5ZM4.167 11.667a.833.833 0 1 0 0 1.666.833.833 0 0 0 0-1.666ZM15 12.5a.834.834 0 1 0 1.667 0 .834.834 0 0 0-1.667 0Z"/>
  </g>
  <defs>
    <clipPath id="a">
      <path fill="#fff" d="M0 0h20v20H0z"/>
    </clipPath>
  </defs>
</svg>
