<svg width="144" height="25" viewBox="0 0 144 25" fill="none" xmlns="http://www.w3.org/2000/svg">
  <g clip-path="url(#clip0_102_1945)">
    <path d="M11.3258 24.2488C8.32204 24.2488 5.44127 23.0412 3.31726 20.8916C1.19326 18.742 0 15.8266 0 12.7867H22.6517C22.6517 15.8266 21.4584 18.742 19.3344 20.8916C17.2104 23.0412 14.3296 24.2488 11.3258 24.2488V24.2488Z" fill="white"/>
    <path d="M21.4118 11.46C21.3737 8.77797 20.2942 6.21889 18.4066 4.33592C16.5191 2.45296 13.9752 1.39739 11.3248 1.39739C8.67441 1.39739 6.13049 2.45296 4.24295 4.33592C2.35542 6.21889 1.27591 8.77797 1.23779 11.46H0C0 8.42002 1.19326 5.50459 3.31726 3.35503C5.44127 1.20547 8.32204 -0.00214391 11.3258 -0.00214391C14.3296 -0.00214391 17.2104 1.20547 19.3344 3.35503C21.4584 5.50459 22.6517 8.42002 22.6517 11.46H21.4118Z" fill="white"/>
    <path d="M11.3262 2.86866C13.5772 2.8709 15.7354 3.7767 17.3273 5.38734C18.9191 6.99797 19.8147 9.1819 19.8175 11.46H18.5776C18.5453 9.53492 17.767 7.69977 16.4105 6.34996C15.0539 5.00015 13.2276 4.24375 11.3252 4.24375C9.42274 4.24375 7.59646 5.00015 6.23988 6.34996C4.8833 7.69977 4.10502 9.53492 4.07275 11.46H2.83496C2.83772 9.1819 3.73329 6.99797 5.32517 5.38734C6.91705 3.7767 9.07523 2.8709 11.3262 2.86866V2.86866Z" fill="white"/>
  </g>
  <path d="M37.7647 19.6828V7.15726H33.3203V4.56577H45.0848V7.15726H40.6404V19.6828H37.7647Z" fill="white"/>
  <path d="M47.0583 19.6828V4.56577H53.6813C54.6399 4.56577 55.475 4.73133 56.1867 5.06247C56.8984 5.3936 57.4503 5.86151 57.8424 6.46619C58.2346 7.07087 58.4307 7.78353 58.4307 8.60417V8.86332C58.4307 9.77034 58.2128 10.5046 57.7771 11.0661C57.3413 11.6276 56.804 12.0379 56.1649 12.297V12.6858C56.7459 12.7146 57.1961 12.9161 57.5156 13.2904C57.8352 13.6504 57.9949 14.1327 57.9949 14.7374V19.6828H55.1192V15.1477C55.1192 14.8021 55.0248 14.5214 54.8359 14.3054C54.6617 14.0895 54.3639 13.9815 53.9427 13.9815H49.9341V19.6828H47.0583ZM49.9341 11.39H53.3763C54.0589 11.39 54.589 11.2101 54.9667 10.8501C55.3588 10.4758 55.5549 9.98629 55.5549 9.38161V9.16566C55.5549 8.56098 55.3661 8.07867 54.9885 7.71874C54.6108 7.34442 54.0734 7.15726 53.3763 7.15726H49.9341V11.39Z" fill="white"/>
  <path d="M59.7929 19.6828L63.8016 4.56577H68.8124L72.821 19.6828H69.8581L69.0303 16.357H63.5837L62.7559 19.6828H59.7929ZM64.2591 13.7224H68.3549L66.5031 6.35821H66.1109L64.2591 13.7224Z" fill="white"/>
  <path d="M80.3291 19.9851C78.4409 19.9851 76.945 19.4668 75.8411 18.4302C74.7373 17.3792 74.1854 15.8819 74.1854 13.9383V10.3102C74.1854 8.36662 74.7373 6.87651 75.8411 5.83992C76.945 4.78892 78.4409 4.26343 80.3291 4.26343C82.2027 4.26343 83.6478 4.77453 84.6645 5.79672C85.6957 6.80452 86.2113 8.19385 86.2113 9.9647V10.0943H83.3791V9.87832C83.3791 8.98569 83.1249 8.25144 82.6166 7.67555C82.1228 7.09967 81.3603 6.81172 80.3291 6.81172C79.3124 6.81172 78.5136 7.12126 77.9326 7.74034C77.3516 8.35942 77.0611 9.20165 77.0611 10.267V13.9815C77.0611 15.0325 77.3516 15.8747 77.9326 16.5082C78.5136 17.1273 79.3124 17.4368 80.3291 17.4368C81.3603 17.4368 82.1228 17.1489 82.6166 16.573C83.1249 15.9827 83.3791 15.2485 83.3791 14.3702V13.9815H86.2113V14.2838C86.2113 16.0547 85.6957 17.4512 84.6645 18.4734C83.6478 19.4812 82.2027 19.9851 80.3291 19.9851Z" fill="white"/>
  <path d="M88.5696 19.6828V4.56577H91.4454V10.5694H91.8376L96.783 4.56577H100.465L94.1033 12.0163L100.683 19.6828H96.8919L91.8376 13.5496H91.4454V19.6828H88.5696Z" fill="white"/>
  <path d="M102.222 19.6828V4.56577H105.098V19.6828H102.222Z" fill="white"/>
  <path d="M107.546 19.6828V16.0547L115.084 7.45959V7.11406H107.764V4.56577H118.091V8.19385L110.553 16.7889V17.1345H118.134V19.6828H107.546Z" fill="white"/>
  <path d="M120.55 19.6828V4.56577H130.353V7.15726H123.425V10.7637H129.743V13.3552H123.425V17.0913H130.484V19.6828H120.55Z" fill="white"/>
  <path d="M132.628 19.6828V4.56577H139.251C140.209 4.56577 141.045 4.73133 141.756 5.06247C142.468 5.3936 143.02 5.86151 143.412 6.46619C143.804 7.07087 144 7.78353 144 8.60417V8.86332C144 9.77034 143.782 10.5046 143.347 11.0661C142.911 11.6276 142.374 12.0379 141.734 12.297V12.6858C142.315 12.7146 142.766 12.9161 143.085 13.2904C143.405 13.6504 143.565 14.1327 143.565 14.7374V19.6828H140.689V15.1477C140.689 14.8021 140.594 14.5214 140.406 14.3054C140.231 14.0895 139.933 13.9815 139.512 13.9815H135.504V19.6828H132.628ZM135.504 11.39H138.946C139.628 11.39 140.159 11.2101 140.536 10.8501C140.928 10.4758 141.124 9.98629 141.124 9.38161V9.16566C141.124 8.56098 140.936 8.07867 140.558 7.71874C140.18 7.34442 139.643 7.15726 138.946 7.15726H135.504V11.39Z" fill="white"/>
  <defs>
    <clipPath id="clip0_102_1945">
      <rect width="22.6517" height="24.2487" fill="white" transform="matrix(1 0 0 -1 0 24.2488)"/>
    </clipPath>
  </defs>
</svg>
