<svg width="386" height="65" viewBox="0 0 386 65" fill="none" xmlns="http://www.w3.org/2000/svg">
<g clip-path="url(#clip0_66_2522)">
<path d="M30.3596 65C22.3077 65 14.5856 61.7629 8.89211 56.0009C3.19859 50.2389 0 42.4239 0 34.2752H60.7191C60.7191 42.4239 57.5205 50.2389 51.827 56.0009C46.1335 61.7629 38.4114 65 30.3596 65V65Z" fill="#5E00F5"/>
<path d="M57.3956 30.7192C57.2934 23.53 54.3997 16.6702 49.34 11.6229C44.2804 6.57547 37.4613 3.74595 30.3568 3.74595C23.2522 3.74595 16.4331 6.57547 11.3735 11.6229C6.31383 16.6702 3.42014 23.53 3.31795 30.7192H0C0 22.5705 3.19859 14.7555 8.89211 8.99352C14.5856 3.2315 22.3077 -0.00556946 30.3596 -0.00556946C38.4114 -0.00556946 46.1335 3.2315 51.827 8.99352C57.5205 14.7555 60.7191 22.5705 60.7191 30.7192H57.3956Z" fill="#FF7966"/>
<path d="M30.3597 7.68979C36.3935 7.69579 42.1787 10.1238 46.4458 14.4412C50.7129 18.7586 53.1135 24.6128 53.1209 30.7192H49.7974C49.7109 25.5591 47.6247 20.6398 43.9883 17.0216C40.3519 13.4034 35.4564 11.3758 30.3569 11.3758C25.2573 11.3758 20.3619 13.4034 16.7255 17.0216C13.0891 20.6398 11.0028 25.5591 10.9163 30.7192H7.59839C7.60579 24.6128 10.0064 18.7586 14.2735 14.4412C18.5407 10.1238 24.3258 7.69579 30.3597 7.68979Z" fill="#FFD2CC"/>
</g>
<path d="M101.23 52.7609V19.1855H89.3164V12.2389H120.852V19.1855H108.938V52.7609H101.23Z" fill="white"/>
<path d="M126.142 52.7609V12.2389H143.895C146.465 12.2389 148.703 12.6827 150.611 13.5703C152.519 14.458 153.998 15.7122 155.049 17.3331C156.1 18.954 156.626 20.8643 156.626 23.0641V23.7587C156.626 26.19 156.042 28.1583 154.874 29.6634C153.706 31.1685 152.266 32.2683 150.553 32.963V34.005C152.11 34.0822 153.317 34.6225 154.173 35.6259C155.03 36.5907 155.458 37.8835 155.458 39.5044V52.7609H147.749V40.6043C147.749 39.6781 147.496 38.9255 146.99 38.3466C146.523 37.7678 145.725 37.4783 144.596 37.4783H133.851V52.7609H126.142ZM133.851 30.5317H143.078C144.907 30.5317 146.328 30.0493 147.341 29.0845C148.392 28.0811 148.917 26.7689 148.917 25.1481V24.5692C148.917 22.9483 148.411 21.6554 147.399 20.6906C146.387 19.6872 144.946 19.1855 143.078 19.1855H133.851V30.5317Z" fill="white"/>
<path d="M160.278 52.7609L171.023 12.2389H184.455L195.2 52.7609H187.258L185.039 43.846H170.439L168.22 52.7609H160.278ZM172.25 36.7836H183.229L178.265 17.0437H177.213L172.25 36.7836Z" fill="white"/>
<path d="M215.326 53.5713C210.265 53.5713 206.255 52.182 203.296 49.4033C200.337 46.5861 198.857 42.5725 198.857 37.3625V27.6373C198.857 22.4273 200.337 18.433 203.296 15.6543C206.255 12.8371 210.265 11.4285 215.326 11.4285C220.348 11.4285 224.222 12.7985 226.947 15.5386C229.712 18.24 231.094 21.9642 231.094 26.711V27.0584H223.502V26.4795C223.502 24.0868 222.82 22.1185 221.458 20.5749C220.134 19.0312 218.09 18.2593 215.326 18.2593C212.601 18.2593 210.459 19.0891 208.902 20.7485C207.345 22.408 206.566 24.6656 206.566 27.5215V37.4783C206.566 40.2955 207.345 42.5532 208.902 44.2513C210.459 45.9107 212.601 46.7405 215.326 46.7405C218.09 46.7405 220.134 45.9686 221.458 44.4249C222.82 42.8426 223.502 40.8744 223.502 38.5203V37.4783H231.094V38.2887C231.094 43.0356 229.712 46.7791 226.947 49.5191C224.222 52.2206 220.348 53.5713 215.326 53.5713Z" fill="white"/>
<path d="M237.415 52.7609V12.2389H245.124V28.3319H246.175L259.432 12.2389H269.301L252.249 32.2105L269.885 52.7609H259.724L246.175 36.3205H245.124V52.7609H237.415Z" fill="white"/>
<path d="M274.012 52.7609V12.2389H281.721V52.7609H274.012Z" fill="white"/>
<path d="M288.283 52.7609V43.0356L308.489 19.996V19.0698H288.867V12.2389H316.548V21.9642L296.342 45.0038V45.93H316.665V52.7609H288.283Z" fill="white"/>
<path d="M323.139 52.7609V12.2389H349.419V19.1855H330.848V28.8529H347.784V35.7995H330.848V45.8143H349.769V52.7609H323.139Z" fill="white"/>
<path d="M355.516 52.7609V12.2389H373.269C375.839 12.2389 378.077 12.6827 379.985 13.5703C381.893 14.458 383.372 15.7122 384.423 17.3331C385.474 18.954 386 20.8643 386 23.0641V23.7587C386 26.19 385.416 28.1583 384.248 29.6634C383.08 31.1685 381.64 32.2683 379.927 32.963V34.005C381.484 34.0822 382.691 34.6225 383.547 35.6259C384.404 36.5907 384.832 37.8835 384.832 39.5044V52.7609H377.123V40.6043C377.123 39.6781 376.87 38.9255 376.364 38.3466C375.897 37.7678 375.099 37.4783 373.97 37.4783H363.224V52.7609H355.516ZM363.224 30.5317H372.451C374.281 30.5317 375.702 30.0493 376.715 29.0845C377.766 28.0811 378.291 26.7689 378.291 25.1481V24.5692C378.291 22.9483 377.785 21.6554 376.773 20.6906C375.761 19.6872 374.32 19.1855 372.451 19.1855H363.224V30.5317Z" fill="white"/>
<defs>
<clipPath id="clip0_66_2522">
<rect width="60.7191" height="65" fill="white" transform="matrix(1 0 0 -1 0 65)"/>
</clipPath>
</defs>
</svg>