<svg xmlns="http://www.w3.org/2000/svg" width="56" height="34" fill="none" viewBox="0 0 56 34">
  <g clip-path="url(#a)">
    <path fill="#FF5F00" fill-rule="evenodd" d="M20.22 30.322h14.987V3.628H20.22V30.32Z" clip-rule="evenodd"/>
    <path fill="#EB001B" fill-rule="evenodd" d="M21.171 16.976c0-5.416 2.559-10.239 6.543-13.347A17.152 17.152 0 0 0 17.127 0C7.668 0 0 7.6 0 16.976 0 26.35 7.668 33.95 17.128 33.95c3.995 0 7.672-1.356 10.585-3.63-3.983-3.108-6.542-7.93-6.542-13.346Z" clip-rule="evenodd"/>
    <path fill="#F79E1B" fill-rule="evenodd" d="M54.892 27.494v-.658h-.174l-.199.453-.2-.453h-.174v.658h.123v-.497l.187.429h.127l.188-.43v.498h.122Zm-1.1 0v-.546h.223v-.111h-.566v.11h.222v.547h.121Zm1.635-10.519c0 9.375-7.669 16.976-17.128 16.976a17.15 17.15 0 0 1-10.586-3.63c3.984-3.108 6.543-7.93 6.543-13.346 0-5.415-2.559-10.237-6.543-13.346A17.15 17.15 0 0 1 38.3 0c9.46 0 17.127 7.6 17.127 16.976Z" clip-rule="evenodd"/>
  </g>
  <defs>
    <clipPath id="a">
      <path fill="#fff" d="M0 0h56v34H0z"/>
    </clipPath>
  </defs>
</svg>
