<svg xmlns="http://www.w3.org/2000/svg" width="72" height="72" fill="none" viewBox="0 0 72 72">
  <rect width="72" height="72" fill="#ACDCF5" rx="24"/>
  <g clip-path="url(#a)">
    <path fill="#0364B8" d="m40.873 42.25 9.66-9.428c-2.006-7.985-9.976-12.799-17.8-10.75-3.523.922-6.584 3.15-8.584 6.252.15-.004 16.724 13.926 16.724 13.926Z"/>
    <path fill="#0078D4" d="M30.445 30.098v.002a11.469 11.469 0 0 0-6.146-1.78l-.15.003c-6.458.082-11.628 5.491-11.549 12.083.03 2.39.761 4.717 2.102 6.678l14.472-1.85 11.096-9.13-9.825-6.006Z"/>
    <path fill="#1490DF" d="M50.533 32.822a9.31 9.31 0 0 0-4.41.77v-.002l-5.854 2.514 6.454 8.136 11.537 2.862c2.49-4.717.761-10.601-3.86-13.142a9.362 9.362 0 0 0-3.867-1.138Z"/>
    <path fill="#28A8EA" d="M14.702 47.085c2.185 3.206 5.77 5.117 9.597 5.115h25.593c3.496 0 6.71-1.957 8.369-5.098L40.27 36.104l-25.568 10.98Z"/>
  </g>
  <defs>
    <clipPath id="a">
      <path fill="#fff" d="M0 0h46.8v30.6H0z" transform="translate(12.6 21.6)"/>
    </clipPath>
  </defs>
</svg>
