<svg xmlns="http://www.w3.org/2000/svg" width="72" height="72" fill="none" viewBox="0 0 72 72">
  <rect width="72" height="72" fill="#1ED760" rx="24"/>
  <g clip-path="url(#a)">
    <path fill="#fff" d="M35.1 16.268c-11.398 0-20.638 9.24-20.638 20.636 0 11.398 9.24 20.637 20.637 20.637 11.398 0 20.637-9.239 20.637-20.636 0-11.397-9.239-20.636-20.637-20.636Zm9.463 29.764a1.286 1.286 0 0 1-1.77.426c-4.845-2.96-10.944-3.63-18.128-1.989a1.287 1.287 0 0 1-.572-2.508c7.86-1.797 14.604-1.023 20.044 2.301.606.372.798 1.163.426 1.77Zm2.526-5.62a1.609 1.609 0 0 1-2.213.531c-5.547-3.41-14.003-4.398-20.564-2.406a1.611 1.611 0 0 1-2.008-1.072 1.611 1.611 0 0 1 1.073-2.007c7.495-2.274 16.812-1.172 23.182 2.742.757.466.996 1.457.53 2.212Zm.217-5.851c-6.651-3.95-17.625-4.314-23.975-2.387a1.93 1.93 0 1 1-1.12-3.694c7.289-2.213 19.407-1.785 27.065 2.76.919.545 1.22 1.73.675 2.646a1.928 1.928 0 0 1-2.644.675h-.001Z"/>
  </g>
  <defs>
    <clipPath id="a">
      <path fill="#fff" d="M0 0h41.4v41.4H0z" transform="translate(14.4 16.2)"/>
    </clipPath>
  </defs>
</svg>
