<svg xmlns="http://www.w3.org/2000/svg" width="72" height="72" fill="none" viewBox="0 0 72 72">
  <rect width="72" height="72" fill="red" rx="24"/>
  <g clip-path="url(#a)">
    <path fill="#fff" d="M58.473 24.588c-.519-1.872-2.039-3.348-3.966-3.852C50.985 19.8 36.9 19.8 36.9 19.8s-14.086 0-17.607.9c-1.89.504-3.447 2.016-3.966 3.888C14.4 28.008 14.4 35.1 14.4 35.1s0 7.128.927 10.512c.518 1.872 2.038 3.348 3.966 3.852C22.85 50.4 36.9 50.4 36.9 50.4s14.085 0 17.607-.9c1.927-.504 3.447-1.98 3.966-3.852.927-3.42.927-10.512.927-10.512s.037-7.128-.927-10.548Z"/>
    <path fill="red" d="m44.128 35.1-11.713-6.552v13.104L44.128 35.1Z"/>
  </g>
  <defs>
    <clipPath id="a">
      <path fill="#fff" d="M0 0h45v30.6H0z" transform="translate(14.4 19.8)"/>
    </clipPath>
  </defs>
</svg>
