<svg width="24" height="24" viewBox="0 0 24 24" fill="none" xmlns="http://www.w3.org/2000/svg">
<path d="M9 22H15C20 22 22 20 22 15V9C22 4 20 2 15 2H9C4 2 2 4 2 9V15C2 20 4 22 9 22Z" stroke="#292932" stroke-width="1.5" stroke-linecap="round" stroke-linejoin="round"/>
<path d="M2 13H5.76C6.52 13 7.21 13.43 7.55 14.11L8.44 15.9C9 17 10 17 10.24 17H13.77C14.53 17 15.22 16.57 15.56 15.89L16.45 14.1C16.79 13.42 17.48 12.99 18.24 12.99H21.98" stroke="#292932" stroke-width="1.5" stroke-linecap="round" stroke-linejoin="round"/>
</svg>
