<svg width="32" height="32" viewBox="0 0 32 32" fill="none" xmlns="http://www.w3.org/2000/svg">
<path opacity="0.4" d="M21.5867 2.66663H10.4133C5.55999 2.66663 2.66666 5.55996 2.66666 10.4133V21.5733C2.66666 26.44 5.55999 29.3333 10.4133 29.3333H21.5733C26.4267 29.3333 29.32 26.44 29.32 21.5866V10.4133C29.3333 5.55996 26.44 2.66663 21.5867 2.66663Z" fill="#7455F6"/>
<path d="M28.4 16.3066H23.76C22.4533 16.3066 21.2933 17.0266 20.7067 18.2L19.5867 20.4133C19.32 20.9466 18.7867 21.28 18.2 21.28H13.8267C13.4133 21.28 12.8267 21.1866 12.44 20.4133L11.32 18.2133C10.7333 17.0533 9.55999 16.32 8.26666 16.32H3.59999C3.07999 16.32 2.66666 16.7333 2.66666 17.2533V21.6C2.66666 26.44 5.57332 29.3333 10.4267 29.3333H21.6C26.1733 29.3333 28.9867 26.8266 29.3333 22.3733V17.24C29.3333 16.7333 28.92 16.3066 28.4 16.3066Z" fill="#7455F6"/>
</svg>
