<svg width="32" height="32" viewBox="0 0 32 32" fill="none" xmlns="http://www.w3.org/2000/svg">
<path d="M22.3333 4.74662V2.66663C22.3333 2.11996 21.88 1.66663 21.3333 1.66663C20.7866 1.66663 20.3333 2.11996 20.3333 2.66663V4.66663H11.6666V2.66663C11.6666 2.11996 11.2133 1.66663 10.6666 1.66663C10.12 1.66663 9.66664 2.11996 9.66664 2.66663V4.74662C6.06664 5.07996 4.31998 7.22662 4.05331 10.4133C4.02665 10.8 4.34665 11.12 4.71998 11.12H27.28C27.6666 11.12 27.9866 10.7866 27.9466 10.4133C27.68 7.22662 25.9333 5.07996 22.3333 4.74662Z" fill="#7455F6"/>
<path opacity="0.4" d="M26.6667 13.12C27.4 13.12 28 13.72 28 14.4533V22.6667C28 26.6667 26 29.3333 21.3333 29.3333H10.6667C6 29.3333 4 26.6667 4 22.6667V14.4533C4 13.72 4.6 13.12 5.33333 13.12H26.6667Z" fill="#7455F6"/>
<path d="M11.3333 20C11.16 20 10.9867 19.96 10.8267 19.8933C10.6667 19.8267 10.52 19.7333 10.3867 19.6133C10.2667 19.48 10.1733 19.3333 10.1066 19.1733C10.04 19.0133 10 18.84 10 18.6667C10 18.4933 10.04 18.32 10.1066 18.16C10.1733 18 10.2667 17.8533 10.3867 17.72C10.52 17.6 10.6667 17.5066 10.8267 17.44C11.1467 17.3066 11.52 17.3066 11.84 17.44C12 17.5066 12.1467 17.6 12.28 17.72C12.4 17.8533 12.4934 18 12.56 18.16C12.6267 18.32 12.6667 18.4933 12.6667 18.6667C12.6667 18.84 12.6267 19.0133 12.56 19.1733C12.4934 19.3333 12.4 19.48 12.28 19.6133C12.1467 19.7333 12 19.8267 11.84 19.8933C11.68 19.96 11.5067 20 11.3333 20Z" fill="#7455F6"/>
<path d="M16 20C15.8266 20 15.6533 19.96 15.4933 19.8933C15.3333 19.8267 15.1866 19.7333 15.0533 19.6133C14.8133 19.36 14.6666 19.0133 14.6666 18.6666C14.6666 18.32 14.8133 17.9733 15.0533 17.72C15.1866 17.6 15.3333 17.5066 15.4933 17.44C15.8133 17.2933 16.1866 17.2933 16.5066 17.44C16.6666 17.5066 16.8133 17.6 16.9466 17.72C17.1866 17.9733 17.3333 18.32 17.3333 18.6666C17.3333 19.0133 17.1866 19.36 16.9466 19.6133C16.8133 19.7333 16.6666 19.8267 16.5066 19.8933C16.3466 19.96 16.1733 20 16 20Z" fill="#7455F6"/>
<path d="M11.3333 24.6666C11.16 24.6666 10.9867 24.6266 10.8267 24.56C10.6667 24.4933 10.52 24.3999 10.3867 24.2799C10.1467 24.0266 10 23.6799 10 23.3333C10 22.9866 10.1467 22.64 10.3867 22.3866C10.52 22.2666 10.6667 22.1733 10.8267 22.1066C11.1467 21.9733 11.52 21.9733 11.84 22.1066C12 22.1733 12.1467 22.2666 12.28 22.3866C12.52 22.64 12.6667 22.9866 12.6667 23.3333C12.6667 23.6799 12.52 24.0266 12.28 24.2799C12.1467 24.3999 12 24.4933 11.84 24.56C11.68 24.6266 11.5067 24.6666 11.3333 24.6666Z" fill="#7455F6"/>
</svg>
