<svg width="32" height="32" viewBox="0 0 32 32" fill="none" xmlns="http://www.w3.org/2000/svg">
<path opacity="0.4" d="M23.9733 14.3867V19.72C23.9733 20.0667 23.96 20.4 23.92 20.72C23.6133 24.32 21.4933 26.1066 17.5867 26.1066H17.0533C16.72 26.1066 16.4 26.2667 16.2 26.5333L14.6 28.6667C13.8933 29.6133 12.7467 29.6133 12.04 28.6667L10.44 26.5333C10.2666 26.3067 9.87999 26.1066 9.58666 26.1066H9.05333C4.8 26.1066 2.66666 25.0533 2.66666 19.72V14.3867C2.66666 10.48 4.46667 8.36001 8.05333 8.05334C8.37333 8.01334 8.70667 8 9.05333 8H17.5867C21.84 8 23.9733 10.1333 23.9733 14.3867Z" fill="#7455F6"/>
<path d="M13.32 18.6667C12.5733 18.6667 11.9867 18.0667 11.9867 17.3333C11.9867 16.6 12.5867 16 13.32 16C14.0533 16 14.6533 16.6 14.6533 17.3333C14.6533 18.0667 14.0667 18.6667 13.32 18.6667Z" fill="#7455F6"/>
<path d="M17.9867 18.6667C17.24 18.6667 16.6533 18.0667 16.6533 17.3333C16.6533 16.6 17.2533 16 17.9867 16C18.72 16 19.32 16.6 19.32 17.3333C19.32 18.0667 18.72 18.6667 17.9867 18.6667Z" fill="#7455F6"/>
<path d="M8.66668 18.6667C7.92001 18.6667 7.33334 18.0667 7.33334 17.3333C7.33334 16.6 7.93334 16 8.66668 16C9.40001 16 10 16.6 10 17.3333C10 18.0667 9.40001 18.6667 8.66668 18.6667Z" fill="#7455F6"/>
<path d="M29.3067 9.05333V14.3867C29.3067 18.3067 27.5067 20.4133 23.92 20.72C23.96 20.4 23.9733 20.0667 23.9733 19.72V14.3867C23.9733 10.1333 21.84 7.99999 17.5867 7.99999H9.05334C8.70668 7.99999 8.37334 8.01333 8.05334 8.05333C8.36001 4.46667 10.48 2.66666 14.3867 2.66666H22.92C27.1733 2.66666 29.3067 4.8 29.3067 9.05333Z" fill="#7455F6"/>
</svg>
