<svg width="18" height="16" viewBox="0 0 18 16" fill="none" xmlns="http://www.w3.org/2000/svg">
  <path d="M5.47058 0C3.26158 0 1.47058 1.592 1.47058 3.55556V7.11111H2.47058V3.55556C2.47058 2.08311 3.81408 0.888889 5.47058 0.888889C7.12758 0.888889 8.47058 2.08311 8.47058 3.55556V7.11111H9.47058V3.55556C9.47058 1.592 7.67958 0 5.47058 0Z" fill="#F4900C"/>
  <path d="M0.529419 3.55554L1.51765 4.44443L2.50589 3.55554L3.49412 4.44443L4.48236 3.55554L5.4706 4.44443L6.45883 3.55554L7.44707 4.44443L8.4353 3.55554L9.42354 4.44443L10.4118 3.55554V13.7778H0.529419L0.529419 3.55554Z" fill="#DD2E44"/>
  <path d="M12.5294 2.22217C10.3204 2.22217 8.52942 3.81417 8.52942 5.77772V9.33328H9.52942V5.77772C9.52942 4.30483 10.8734 3.11106 12.5294 3.11106C14.1869 3.11106 15.5294 4.30483 15.5294 5.77772V9.33328H16.5294V5.77772C16.5294 3.81417 14.7384 2.22217 12.5294 2.22217Z" fill="#FFCC4D"/>
  <path d="M7.58826 5.77783L8.57649 6.66672L9.56473 5.77783L10.553 6.66672L11.5412 5.77783L12.5294 6.66672L13.5177 5.77783L14.5059 6.66672L15.4941 5.77783L16.4824 6.66672L17.4706 5.77783V16.0001H7.58826V5.77783Z" fill="#744EAA"/>
</svg>
