<svg width="32" height="32" viewBox="0 0 32 32" fill="none" xmlns="http://www.w3.org/2000/svg">
<path opacity="0.4" d="M21.5866 2.66663H10.4133C5.55996 2.66663 2.66663 5.55996 2.66663 10.4133V21.5733C2.66663 26.44 5.55996 29.3333 10.4133 29.3333H21.5733C26.4266 29.3333 29.32 26.44 29.32 21.5866V10.4133C29.3333 5.55996 26.44 2.66663 21.5866 2.66663Z" fill="#7455F6"/>
<path d="M9.33325 19.1332C8.78659 19.1332 8.33325 18.6799 8.33325 18.1332V13.8666C8.33325 13.3199 8.78659 12.8666 9.33325 12.8666C9.87992 12.8666 10.3333 13.3199 10.3333 13.8666V18.1466C10.3333 18.6932 9.87992 19.1332 9.33325 19.1332Z" fill="#7455F6"/>
<path d="M16 21.4533C15.4533 21.4533 15 21 15 20.4533V11.5466C15 11 15.4533 10.5466 16 10.5466C16.5467 10.5466 17 11 17 11.5466V20.4533C17 21 16.5467 21.4533 16 21.4533Z" fill="#7455F6"/>
<path d="M22.6666 19.1332C22.12 19.1332 21.6666 18.6799 21.6666 18.1332V13.8666C21.6666 13.3199 22.12 12.8666 22.6666 12.8666C23.2133 12.8666 23.6666 13.3199 23.6666 13.8666V18.1466C23.6666 18.6932 23.2133 19.1332 22.6666 19.1332Z" fill="#7455F6"/>
</svg>
