<svg width="32" height="32" viewBox="0 0 32 32" fill="none" xmlns="http://www.w3.org/2000/svg">
<path opacity="0.4" d="M26.72 9.09333L19.04 3.72C16.9467 2.25333 13.7333 2.33333 11.72 3.89333L5.03999 9.10666C3.70665 10.1467 2.65332 12.28 2.65332 13.96V23.16C2.65332 26.56 5.41332 29.3333 8.81332 29.3333H23.1867C26.5867 29.3333 29.3467 26.5733 29.3467 23.1733V14.1333C29.3467 12.3333 28.1867 10.12 26.72 9.09333Z" fill="#7455F6"/>
<path d="M16 25C15.4533 25 15 24.5467 15 24V20C15 19.4533 15.4533 19 16 19C16.5467 19 17 19.4533 17 20V24C17 24.5467 16.5467 25 16 25Z" fill="#7455F6"/>
</svg>
