<svg width="16" height="16" viewBox="0 0 16 16" fill="none" xmlns="http://www.w3.org/2000/svg">
  <path d="M8 16C12.4183 16 16 12.4183 16 8C16 3.58172 12.4183 0 8 0C3.58172 0 0 3.58172 0 8C0 12.4183 3.58172 16 8 16Z" fill="#DD2E44"/>
  <path d="M8 14C11.3137 14 14 11.3137 14 8C14 4.68629 11.3137 2 8 2C4.68629 2 2 4.68629 2 8C2 11.3137 4.68629 14 8 14Z" fill="white"/>
  <path d="M7.99999 12.4444C10.4546 12.4444 12.4444 10.4546 12.4444 7.99999C12.4444 5.54539 10.4546 3.55554 7.99999 3.55554C5.54539 3.55554 3.55554 5.54539 3.55554 7.99999C3.55554 10.4546 5.54539 12.4444 7.99999 12.4444Z" fill="#DD2E44"/>
  <path d="M8.00004 10.6667C9.4728 10.6667 10.6667 9.4728 10.6667 8.00004C10.6667 6.52728 9.4728 5.33337 8.00004 5.33337C6.52728 5.33337 5.33337 6.52728 5.33337 8.00004C5.33337 9.4728 6.52728 10.6667 8.00004 10.6667Z" fill="white"/>
  <path d="M7.99996 9.33329C8.73634 9.33329 9.33329 8.73634 9.33329 7.99996C9.33329 7.26358 8.73634 6.66663 7.99996 6.66663C7.26358 6.66663 6.66663 7.26358 6.66663 7.99996C6.66663 8.73634 7.26358 9.33329 7.99996 9.33329Z" fill="#DD2E44"/>
  <path opacity="0.2" d="M8.10664 8.12537L13.9484 13.3494C13.9484 13.3494 12.772 14.8498 10.4418 15.62L7.81287 8.1867L8.10664 8.12537Z" fill="black"/>
  <path d="M8.13067 8.44445C8.01733 8.44445 7.90444 8.40134 7.81778 8.31467C7.64489 8.14178 7.64489 7.86223 7.81778 7.68934L8.068 7.43911C8.24089 7.26623 8.52044 7.26623 8.69378 7.43911C8.86622 7.612 8.86622 7.89156 8.69378 8.06445L8.44311 8.31467C8.35689 8.40134 8.244 8.44445 8.13067 8.44445Z" fill="#FFAC33"/>
  <path d="M10.6737 3.10271C10.4946 4.02671 10.6737 5.18759 10.6737 5.18759L13.8088 1.90404C13.9382 1.25782 13.5742 0.156484 13.0453 0.020484C12.5164 -0.115516 11.2324 0.377373 10.6737 3.10271ZM12.8973 5.32626C11.9733 5.50537 10.8124 5.32626 10.8124 5.32626L14.0959 2.19115C14.7422 2.06182 15.8435 2.42582 15.9795 2.95471C16.1155 3.48359 15.6226 4.76759 12.8973 5.32626Z" fill="#55ACEE"/>
  <path d="M14.5769 1.9933L9.41152 7.81641C9.25063 7.9773 8.66797 8.20841 8.29597 7.83685C7.92441 7.4653 8.10974 6.91241 8.27063 6.75107L14.14 1.55596C14.14 1.55596 14.4404 1.27374 14.6551 1.48841C14.8697 1.70308 14.5769 1.9933 14.5769 1.9933Z" fill="#3A87C2"/>
</svg>
