<svg width="16" height="16" viewBox="0 0 16 16" fill="none" xmlns="http://www.w3.org/2000/svg">
  <path d="M14.2222 3.55556H11.5556V1.77778C11.5556 0.796 10.7596 0 9.77778 0H6.22222C5.24044 0 4.44444 0.796 4.44444 1.77778V3.55556H1.77778C0.796 3.55556 0 4.35156 0 5.33333V14.2222C0 15.204 0.796 16 1.77778 16H14.2222C15.204 16 16 15.204 16 14.2222V5.33333C16 4.35156 15.204 3.55556 14.2222 3.55556ZM5.33333 2.66667C5.33333 2.176 5.73156 1.77778 6.22222 1.77778H9.77778C10.2684 1.77778 10.6667 2.176 10.6667 2.66667V3.55556H5.33333V2.66667Z" fill="#9A4E1C"/>
  <path d="M16 8.88888C16 9.87065 15.204 10.6667 14.2222 10.6667H1.77778C0.796 10.6667 0 9.87065 0 8.88888V5.33332C0 4.35154 0.796 3.55554 1.77778 3.55554H14.2222C15.204 3.55554 16 4.35154 16 5.33332V8.88888Z" fill="#662113"/>
  <path d="M16 7.99999C16 8.98176 15.204 9.77776 14.2222 9.77776H1.77778C0.796 9.77776 0 8.98176 0 7.99999V5.33332C0 4.35154 0.796 3.55554 1.77778 3.55554H14.2222C15.204 3.55554 16 4.35154 16 5.33332V7.99999Z" fill="#9A4E1C"/>
  <path d="M9.77778 7.99997C9.77778 8.49064 9.37956 8.88886 8.8889 8.88886H7.11112C6.62045 8.88886 6.22223 8.49064 6.22223 7.99997C6.22223 7.50931 6.62045 7.11108 7.11112 7.11108H8.8889C9.37956 7.11108 9.77778 7.50931 9.77778 7.99997Z" fill="#CCD6DD"/>
</svg>
