<svg width="33" height="32" viewBox="0 0 33 32" fill="none" xmlns="http://www.w3.org/2000/svg">
  <path fill-rule="evenodd" clip-rule="evenodd" d="M11.0858 7H11.5H27.5H28.5V8V24V25H27.5H11.5H11.0858L10.7929 24.7071L2.79286 16.7071L2.08575 16L2.79286 15.2929L10.7929 7.29289L11.0858 7ZM11.9142 9L4.91418 16L11.9142 23H26.5V9H11.9142ZM15.5 11.5858L16.2071 12.2929L18.5 14.5858L20.7929 12.2929L21.5 11.5858L22.9142 13L22.2071 13.7071L19.9142 16L22.2071 18.2929L22.9142 19L21.5 20.4142L20.7929 19.7071L18.5 17.4142L16.2071 19.7071L15.5 20.4142L14.0858 19L14.7929 18.2929L17.0858 16L14.7929 13.7071L14.0858 13L15.5 11.5858Z" fill="white"/>
</svg>
