<svg width="128px" height="128px" viewBox="0 0 128 128" xmlns="http://www.w3.org/2000/svg" xmlns:xlink="http://www.w3.org/1999/xlink" aria-hidden="true" role="img" class="iconify iconify--noto" preserveAspectRatio="xMidYMid meet"><path d="M116 4H12c-4.42 0-8 3.58-8 8v104c0 4.42 3.58 8 8 8h104c4.42 0 8-3.58 8-8V12c0-4.42-3.58-8-8-8z" fill="#c33"></path><path d="M109.7 4H11.5A7.555 7.555 0 0 0 4 11.5v97.9c-.01 4.14 3.34 7.49 7.48 7.5H109.6c4.14.01 7.49-3.34 7.5-7.48V11.5c.09-4.05-3.13-7.41-7.18-7.5h-.22z" fill="#f44336"></path><path d="M39.7 12.9c0-2.3-1.6-3-10.8-2.7c-7.7.3-11.5 1.2-13.8 4c-1.9 2.3-2.3 5.6-2.6 8.4c-.2 2.2-2.2 14.9 3.5 11.2c.68-.45 1.23-1.07 1.6-1.8c1.2-2.1 1.9-3.5 3.3-5.6c5.3-8.6 18.8-10.5 18.8-13.5z" fill="#ff8a80"></path></svg>